<svg width="253" height="178" viewBox="0 0 253 178" fill="none" xmlns="http://www.w3.org/2000/svg">
<path d="M236.191 177.75H31.8086L74.0938 104.198C96.6285 102.862 121.024 100.511 136.571 96.291C147.799 93.2435 164.152 88.2575 181.796 83.1367L236.191 177.75ZM175.643 72.4326C158.8 77.3372 143.277 82.0368 133.429 84.71C120.776 88.144 101.102 90.3328 81.2725 91.7129L134 0L175.643 72.4326Z" fill="black"/>
<g style="mix-blend-mode:lighten">
<path d="M252.664 78.4233C244.555 60.1411 236.445 41.8589 228.336 23.5767C225.425 25.4421 221.702 27.5897 218.285 29.5763C195.833 42.5188 172.429 54.6469 148.65 65.6401C141.522 68.928 134.328 72.0596 127.081 75.0598C112.194 81.3158 96.0457 86.0407 79.5796 90.2798C72.2876 92.1594 65.158 99.4688 57.4919 99.7996C42.452 100.442 27.3555 100.419 12.3733 99.7544C8.23612 99.5653 4.08673 99.3347 0 99C4.08673 99.3347 8.23612 99.5653 12.3733 99.7544C27.3555 100.419 42.452 100.442 57.4919 99.7996C65.0833 99.4724 73.193 105.766 81.088 106.208C98.7507 107.19 116.678 106.64 134.919 103.94C143.043 102.768 151.146 101.446 159.244 100.046C186.307 95.3475 213.112 89.3265 239.893 82.0811C244.101 80.9263 248.153 79.8159 252.664 78.4233Z" fill="#C9C9C9"/>
</g>
</svg>
